<?xml version="1.0" encoding="UTF-8"?>
<!DOCTYPE svg PUBLIC "-//W3C//DTD SVG 1.1//EN" "http://www.w3.org/Graphics/SVG/1.1/DTD/svg11.dtd">
<!-- Creator: CorelDRAW -->
<svg xmlns="http://www.w3.org/2000/svg" xml:space="preserve" width="16.256mm" height="16.256mm" version="1.1" style="shape-rendering:geometricPrecision; text-rendering:geometricPrecision; image-rendering:optimizeQuality; fill-rule:evenodd; clip-rule:evenodd"
viewBox="0 0 1625.6 1625.6"
 xmlns:xlink="http://www.w3.org/1999/xlink"
 xmlns:xodm="http://www.corel.com/coreldraw/odm/2003">
 <defs>
  <style type="text/css">
   <![CDATA[
    .fil0 {fill:#DE3338}
   ]]>
  </style>
 </defs>
 <g id="Camada_x0020_1">
  <metadata id="CorelCorpID_0Corel-Layer"/>
  <path class="fil0" d="M234.56 1240.69l1214.71 -1.61c0,0 0.68,-37.35 -26.02,-60.8 -26.7,-23.44 -321.38,-130.48 -321.38,-130.48l-751.32 1.61c-39.63,0.08 -115.9,37.29 -115.9,120.99 -0.09,53.3 0.21,50.39 -0.09,70.29z"/>
  <path class="fil0" d="M564.63 1030.29l371.27 0.21 0 -93.65c0,0 -2.34,-99.51 -93.99,-101.49 -91.64,-1.98 -87.34,0.71 -182.31,0 -94.97,-0.72 -94.97,97.13 -94.97,97.13 0,80.14 0,97.8 0,97.8z"/>
  <path class="fil0" d="M434.61 625.38l125.1 236.77c0,0 46.37,-53.34 97.22,-52.84 50.84,0.5 175.96,0.5 175.96,0.5l-220.83 -298.58c0,0 -28.59,67.5 -67.47,89.43 -49.22,28.74 -109.98,24.72 -109.98,24.72z"/>
  <path class="fil0" d="M454.99 320.7c79.61,0 144.14,64.52 144.14,144.13 0,79.6 -64.53,144.13 -144.14,144.13 -79.6,0 -144.13,-64.53 -144.13,-144.13 0,-79.61 64.53,-144.13 144.13,-144.13zm1.41 81.66c33.55,0 60.75,27.2 60.75,60.76 0,33.55 -27.2,60.75 -60.75,60.75 -33.55,0 -60.75,-27.2 -60.75,-60.75 0,-33.56 27.2,-60.76 60.75,-60.76z"/>
  <path class="fil0" d="M982.95 104.88c28.15,0 50.97,22.82 50.97,50.97 0,28.14 -22.82,50.96 -50.97,50.96 -28.15,0 -50.97,-22.82 -50.97,-50.96 0,-28.15 22.82,-50.97 50.97,-50.97zm-1.18 -68.52c66.78,0 120.92,54.14 120.92,120.92 0,66.78 -54.14,120.92 -120.92,120.92 -66.78,0 -120.92,-54.14 -120.92,-120.92 0,-66.78 54.14,-120.92 120.92,-120.92z"/>
  <path class="fil0" d="M1287.75 419.68c51.87,0 93.92,42.05 93.92,93.93 0,51.87 -42.05,93.92 -93.92,93.92 -51.87,0 -93.92,-42.05 -93.92,-93.92 0,-51.88 42.05,-93.93 93.92,-93.93zm0.92 53.22c21.86,0 39.59,17.73 39.59,39.59 0,21.87 -17.73,39.59 -39.59,39.59 -21.87,0 -39.59,-17.72 -39.59,-39.59 0,-21.86 17.72,-39.59 39.59,-39.59z"/>
  <path class="fil0" d="M512.83 309.99l343.03 -216.95c0,0 -28.98,84.13 0.2,127.16 29.18,43.03 57.62,58 57.62,58l-297.42 212.31c0,0 9.97,-67.99 -24,-114.54 -33.97,-46.56 -79.43,-65.98 -79.43,-65.98z"/>
  <path class="fil0" d="M1001.87 297.75l175.76 188.52c0,0 8.34,-41.63 42.83,-66.59 34.49,-24.95 67.29,-19.26 67.29,-19.26l-168.26 -204.32c0,0 -15.18,45.52 -43.63,67.34 -28.46,21.81 -73.99,34.31 -73.99,34.31z"/>
  <path class="fil0" d="M1297.85 696.05l-33.7 1.42 -45.67 38.93c12.86,55.35 34.32,121.52 2.31,122.88 -32,1.35 -74.49,-124.4 -75.33,-139.88 -0.84,-15.48 86.01,-106.29 86.01,-106.29 0,0 28.2,12.73 63.35,11.25 35.15,-1.49 61.68,-18.85 61.68,-18.85 0,0 94.69,85.47 95.16,100.96 0.47,15.49 -31.27,144.38 -63.28,145.73 -32,1.35 -16.2,-66.39 -8.05,-122.63l-48.79 -34.95 -33.69 1.43z"/>
  <path class="fil0" d="M1300.33 1585.89c87.65,0 158.7,-71.05 158.7,-158.7 0,-87.65 -71.05,-158.7 -158.7,-158.7l-917.82 0c-87.65,0 -158.7,71.05 -158.7,158.7 0,87.65 71.05,158.7 158.7,158.7 87.65,0 917.82,0 917.82,0zm-79.75 -259.84c55.86,0 101.15,45.28 101.15,101.14 0,55.86 -45.29,101.15 -101.15,101.15 -55.86,0 -101.14,-45.29 -101.14,-101.15 0,-55.86 45.28,-101.14 101.14,-101.14zm0 41.97c32.68,0 59.17,26.49 59.17,59.17 0,32.68 -26.49,59.17 -59.17,59.17 -32.68,0 -59.17,-26.49 -59.17,-59.17 0,-32.68 26.49,-59.17 59.17,-59.17zm-379.16 -41.97c55.86,0 101.15,45.28 101.15,101.14 0,55.86 -45.29,101.15 -101.15,101.15 -55.86,0 -101.15,-45.29 -101.15,-101.15 0,-55.86 45.29,-101.14 101.15,-101.14zm0 41.97c32.68,0 59.17,26.49 59.17,59.17 0,32.68 -26.49,59.17 -59.17,59.17 -32.68,0 -59.17,-26.49 -59.17,-59.17 0,-32.68 26.49,-59.17 59.17,-59.17zm-381.54 -41.97c55.86,0 101.15,45.28 101.15,101.14 0,55.86 -45.29,101.15 -101.15,101.15 -55.86,0 -101.14,-45.29 -101.14,-101.15 0,-55.86 45.28,-101.14 101.14,-101.14zm0 41.97c32.68,0 59.17,26.49 59.17,59.17 0,32.68 -26.49,59.17 -59.17,59.17 -32.68,0 -59.17,-26.49 -59.17,-59.17 0,-32.68 26.49,-59.17 59.17,-59.17z"/>
 </g>
</svg>
